<svg width="29" height="37" viewBox="0 0 29 37" fill="none" xmlns="http://www.w3.org/2000/svg">
<path d="M12.099 35.649C11.5301 35.1596 10.9693 34.6862 10.5287 34.0924C9.61529 32.8809 9.42301 31.5249 9.70343 30.0646C10.0239 28.4197 10.729 26.9273 11.41 25.4189C12.1951 23.6778 13.0284 21.9527 13.3729 20.0591C13.6453 18.5908 13.5732 17.1626 12.8842 15.7986C12.8521 15.7264 12.8441 15.6381 12.7079 15.6141C12.8121 16.0955 12.9403 16.5689 13.0204 17.0423C13.2367 18.326 12.9883 19.5697 12.6278 20.7973C12.075 22.6909 11.1856 24.44 10.4005 26.2453C9.85565 27.497 9.33488 28.7487 9.13458 30.1127C9.06247 30.6022 9.07048 31.0996 9.0865 31.5891C9.0865 31.7014 9.16662 31.8538 9.04644 31.918C8.92627 31.9822 8.83012 31.8458 8.74199 31.7736C6.97936 30.4497 5.68143 28.7648 4.9283 26.6866C3.66242 23.1803 3.97488 19.7863 5.96986 16.6331C7.07551 14.8839 8.64585 13.56 10.4646 12.5651C12.0269 11.7146 13.7174 11.2813 15.4881 11.2813C17.483 11.2813 19.3658 11.7868 21.1124 12.7577C23.5 14.0816 25.3428 15.9511 26.5205 18.4304C27.9226 21.367 28.0428 24.3678 26.849 27.4007C25.6472 30.4337 23.476 32.6803 20.9041 34.5819C20.5917 34.8146 20.2952 35.0713 19.9828 35.32C19.9747 35.3281 19.9828 35.3441 19.9908 35.3602C24.7338 33.948 29.4128 28.6284 28.9722 21.9126C28.4354 13.7686 21.3448 8.48108 14.102 9.29147C6.21022 10.1741 1.27485 17.2348 2.15617 24.2876C2.6449 28.179 4.49566 31.2842 7.62833 33.611C8.97434 34.6059 10.4485 35.3361 12.099 35.649Z" fill="#A10550"/>
<path d="M21.4972 19.9867C21.2568 20.059 21.0165 20.1633 20.7761 20.2114C20.3915 20.2756 20.3194 20.1793 20.3515 19.7862C20.4877 17.9167 20.2233 16.1354 19.1817 14.5307C18.8292 13.9851 18.3565 13.5679 17.6595 13.3272C17.9078 14.0493 18.1562 14.7072 18.3084 15.3892C18.7892 17.5556 18.5087 19.6337 17.6194 21.6476C16.8743 23.3406 15.8568 24.8811 14.9755 26.5019C14.022 28.2591 13.301 30.0804 13.3571 32.1345C13.3731 32.7603 13.4452 33.3862 13.6054 33.996C13.6214 34.0682 13.7096 34.1484 13.5974 34.1885C13.5013 34.2286 13.4612 34.1324 13.4292 34.0601C13.1568 33.4824 13.0125 32.8726 12.9484 32.2468C12.7161 29.936 13.3731 27.8338 14.5028 25.852C14.5669 25.7397 14.631 25.6273 14.7031 25.4909C14.2464 25.6915 13.8698 26.0285 13.4211 26.7506C12.1392 28.8207 11.5544 31.0593 11.9149 33.4824C12.2194 35.5285 13.6936 36.8363 15.7526 36.9807C16.1532 37.0128 16.5538 36.9968 16.9544 36.9888C17.0586 36.9888 17.1707 37.0128 17.2188 36.8925C15.3921 36.1944 14.4146 34.8224 14.2143 32.9208C14.0541 31.4364 14.9194 30.5137 16.4096 30.3934C17.0265 30.3452 17.6354 30.3934 18.2363 30.5378C18.7651 30.6581 19.2939 30.6902 19.8147 30.4977C20.5197 30.2329 20.7681 29.7354 20.5838 29.0053C20.5197 28.7565 20.4316 28.5239 20.3755 28.2751C20.2714 27.8178 20.4076 27.5931 20.8562 27.4808C21.353 27.3524 21.361 27.3524 21.0645 26.9673C20.9283 26.7908 20.9364 26.6784 21.1687 26.6303C21.5853 26.542 21.5693 26.3174 21.393 26.0125C21.3209 25.8841 21.2568 25.7557 21.2008 25.6193C20.9924 25.0577 21.0325 24.9213 21.5292 24.5843C21.6414 24.5121 21.7456 24.4318 21.8497 24.3436C22.2103 24.0146 22.2183 23.7257 21.8417 23.4048C21.6094 23.2042 21.353 23.0277 21.0806 22.8913C20.5678 22.6345 20.3595 22.2093 20.3114 21.6637C20.3034 21.5674 20.2954 21.4791 20.2874 21.3828C20.2874 21.1261 20.2233 20.8533 20.2954 20.6286C20.3915 20.3318 20.7441 20.5163 20.9604 20.42C21.1767 20.3237 21.4091 20.2515 21.5613 20.0429C21.5453 20.0349 21.5212 20.0108 21.4972 19.9867Z" fill="#A10550"/>
<path d="M5.64918 5.59242C6.75483 5.92941 7.66018 6.55525 8.31716 7.51808C8.3492 7.56622 8.4133 7.60634 8.46137 7.64646C8.13288 6.30652 7.62813 5.07891 6.30616 4.40492C5.64117 4.06793 4.94413 4.18829 4.26311 4.29259C3.52601 4.41295 2.82897 4.30864 2.15597 4.00374C2.1079 3.97967 2.05982 3.97967 2.00374 3.96363C1.99573 3.96363 1.97971 3.97165 1.93163 3.99572C2.1079 4.89436 2.52452 5.6887 3.10939 6.38675C4.10287 7.57425 5.37677 8.26428 6.89904 8.52103C7.44386 8.60929 7.95662 8.78581 8.48541 9.13885C8.31716 8.28032 7.99668 7.59832 7.46789 7.01259C6.95513 6.44292 6.32218 6.05779 5.64918 5.72079C5.41683 5.64858 5.17647 5.57637 4.91208 5.39985C5.21653 5.42392 5.44087 5.47206 5.64918 5.59242ZM4.75184 5.36776C4.77587 5.36776 4.7919 5.36776 4.81594 5.35973C4.80792 5.36776 4.79991 5.37578 4.78389 5.37578C4.76786 5.3838 4.75985 5.36776 4.75184 5.36776Z" fill="#A10550"/>
<path d="M6.93835 9.86899C6.0971 9.37955 5.21578 9.01047 4.26236 8.87407C3.37304 8.74569 2.66798 9.06663 2.14721 9.79678C2.02703 9.95725 1.91486 10.1257 1.80269 10.2862C1.37005 10.9442 0.881318 11.5299 3.83019e-06 11.7866C1.73059 12.7093 3.39707 13.271 5.2238 12.3082C6.12915 11.8348 6.93835 11.1849 8.044 10.9201C6.51372 10.0455 5.03952 10.0054 3.50123 10.551C4.53477 9.74864 5.72855 9.78876 6.93835 9.86899Z" fill="#A10550"/>
<path d="M9.70254 2.32792e-06C8.47671 1.87753 7.97997 3.74702 8.98947 5.80909C9.30194 6.44295 9.63844 7.0688 9.5423 7.83906C10.0871 7.32555 10.4557 6.71576 10.688 6.0177C10.9204 5.29558 10.8002 4.58148 10.7361 3.85936C11.2809 4.91847 11.2969 6.00166 10.8482 7.15706C12.4667 5.26349 12.4186 3.67481 11.0886 2.18242C10.8082 1.86148 10.5198 1.54856 10.2554 1.21157C9.99097 0.874575 9.79868 0.505489 9.70254 2.32792e-06Z" fill="#A10550"/>
<path d="M14.9588 7.02869C14.3579 7.83907 13.5327 8.32851 12.5472 8.63341C14.0054 9.16297 15.5998 8.75376 16.2087 7.22125C16.401 6.73181 16.5051 6.22633 16.5852 5.71282C16.7134 4.91046 16.8096 4.70987 17.2823 4.05193C16.6493 4.01181 16.0725 4.14019 15.5036 4.26054C14.2938 4.5173 13.4125 5.20733 12.8276 6.29854C12.4751 6.9645 12.0505 7.56627 11.2813 7.98349C12.371 8.19211 13.2843 8.01559 14.1336 7.44591C14.4541 7.22928 14.7185 6.94043 15.0069 6.68367C15.087 6.49913 15.1992 6.33866 15.4075 6.2504C15.2953 6.53925 15.2072 6.8281 14.9588 7.02869Z" fill="#A10550"/>
<path d="M14.9586 7.02881C15.207 6.82822 15.2951 6.53937 15.4073 6.25855C15.199 6.33878 15.0868 6.49926 15.0067 6.69182C14.9907 6.80415 14.9746 6.91648 14.9586 7.02881Z" fill="#A10550"/>
<path d="M5.64947 5.59254C5.44116 5.47218 5.22484 5.42404 4.91237 5.41602C5.17676 5.60056 5.41712 5.67277 5.64947 5.73696C5.64947 5.6808 5.64947 5.64068 5.64947 5.59254Z" fill="#A10550"/>
<path d="M21.5694 20.059C21.5934 20.0269 21.6254 19.9868 21.6495 19.9547C21.5854 19.9146 21.5373 19.9307 21.4972 19.9949C21.5213 20.0109 21.5453 20.035 21.5694 20.059Z" fill="#A10550"/>
<path d="M8.45277 7.64649L8.4776 7.67131L8.45277 7.65476L8.45277 7.64649Z" fill="#A10550"/>
<path d="M4.75334 5.36794C4.76135 5.37621 4.77738 5.38449 4.78539 5.38449C4.7934 5.38449 4.80943 5.37621 4.81744 5.36794C4.7934 5.35966 4.76937 5.36794 4.75334 5.36794Z" fill="#A10550"/>
</svg>
