<svg width="226" height="167" viewBox="0 0 226 167" fill="none" xmlns="http://www.w3.org/2000/svg">
<g filter="url(#filter0_d_4454_20962)">
<rect x="21.3229" y="21.3229" width="182.562" height="124.354" rx="14.5521" fill="white" stroke="#D9D9D9" stroke-width="2.64583"/>
<path fill-rule="evenodd" clip-rule="evenodd" d="M64.1638 67.2706C66.6511 67.4804 69.1384 66.0117 70.6929 64.1495C72.2216 62.235 73.2321 59.6647 72.973 57.042C70.7707 57.1469 68.0502 58.5107 66.4956 60.4253C65.0706 62.0776 63.8529 64.7528 64.1638 67.2706ZM93.7513 101.051V60.1632H108.908C116.733 60.1632 122.2 65.6185 122.2 73.5915C122.2 81.5645 116.629 87.0722 108.701 87.0722H100.021V101.051H93.7513ZM72.9471 67.7694C70.7559 67.6418 68.7564 68.4365 67.1414 69.0785C66.1021 69.4916 65.222 69.8414 64.5525 69.8414C63.8011 69.8414 62.8847 69.4729 61.8557 69.0591C60.5075 68.5169 58.9661 67.8971 57.3497 67.9268C53.6446 67.9793 50.1987 70.1036 48.3073 73.4869C44.4209 80.2535 47.2968 90.2723 51.0537 95.78C52.8933 98.5076 55.0956 101.497 57.9974 101.393C59.2741 101.344 60.1924 100.949 61.1428 100.541C62.237 100.071 63.3736 99.5829 65.1484 99.5829C66.8617 99.5829 67.9486 100.058 68.992 100.515C69.9841 100.949 70.9368 101.366 72.3512 101.34C75.3567 101.288 77.2481 98.6125 79.0876 95.8849C81.0728 92.9574 81.9452 90.1003 82.0776 89.6667L82.0777 89.6664C82.0852 89.6418 82.0903 89.6251 82.0931 89.6166C82.09 89.6134 82.0655 89.602 82.0223 89.582L82.0222 89.582C81.3586 89.2744 76.2863 86.9239 76.2376 80.6207C76.1888 75.3301 80.2608 72.6496 80.9018 72.2276L80.902 72.2275L80.9023 72.2273C80.941 72.2018 80.9672 72.1846 80.979 72.1756C78.3881 68.294 74.3462 67.8743 72.9471 67.7694ZM133.652 101.366C137.59 101.366 141.243 99.3461 142.902 96.1464H143.031V101.051H148.835V80.6986C148.835 74.7976 144.171 70.9946 136.994 70.9946C130.336 70.9946 125.413 74.85 125.231 80.1479H130.88C131.346 77.6301 133.652 75.9778 136.813 75.9778C140.648 75.9778 142.798 77.7874 142.798 81.1183V83.3738L134.973 83.8459C127.693 84.2918 123.755 87.3079 123.755 92.5533C123.755 97.8512 127.822 101.366 133.652 101.366ZM135.335 96.5134C131.993 96.5134 129.868 94.8873 129.868 92.3957C129.868 89.8255 131.915 88.3306 135.827 88.0945L142.797 87.6486V89.9566C142.797 93.7858 139.584 96.5134 135.335 96.5134ZM168.088 102.651C165.574 109.811 162.698 112.172 156.584 112.172C156.117 112.172 154.563 112.119 154.2 112.014V107.11C154.589 107.162 155.547 107.215 156.04 107.215C158.812 107.215 160.367 106.035 161.325 102.966L161.895 101.156L151.272 71.3887H157.827L165.212 95.5438H165.341L172.725 71.3887H179.099L168.088 102.651ZM100.02 65.5131H107.248C112.689 65.5131 115.798 68.4505 115.798 73.6172C115.798 78.784 112.689 81.7476 107.222 81.7476H100.02V65.5131Z" fill="black"/>
</g>
<defs>
<filter id="filter0_d_4454_20962" x="0" y="0" width="225.209" height="167" filterUnits="userSpaceOnUse" color-interpolation-filters="sRGB">
<feFlood flood-opacity="0" result="BackgroundImageFix"/>
<feColorMatrix in="SourceAlpha" type="matrix" values="0 0 0 0 0 0 0 0 0 0 0 0 0 0 0 0 0 0 127 0" result="hardAlpha"/>
<feOffset/>
<feGaussianBlur stdDeviation="10"/>
<feComposite in2="hardAlpha" operator="out"/>
<feColorMatrix type="matrix" values="0 0 0 0 0 0 0 0 0 0 0 0 0 0 0 0 0 0 0.07 0"/>
<feBlend mode="normal" in2="BackgroundImageFix" result="effect1_dropShadow_4454_20962"/>
<feBlend mode="normal" in="SourceGraphic" in2="effect1_dropShadow_4454_20962" result="shape"/>
</filter>
</defs>
</svg>
