<svg width="226" height="167" viewBox="0 0 226 167" fill="none" xmlns="http://www.w3.org/2000/svg">
<g filter="url(#filter0_d_4454_20886)">
<rect x="21.3229" y="21.3229" width="182.562" height="124.354" rx="14.5521" fill="white" stroke="#D9D9D9" stroke-width="2.64583"/>
<path d="M137.349 46.458C157.291 46.458 173.458 62.8123 173.458 82.9863C173.458 103.16 157.291 119.515 137.349 119.515C128.41 119.515 120.232 116.227 113.926 110.784C107.62 116.226 99.4424 119.515 90.5039 119.515C70.5615 119.515 54.3946 103.16 54.3945 82.9863C54.3945 62.8123 70.5614 46.458 90.5039 46.458C99.442 46.458 107.62 49.7447 113.926 55.1865C120.231 49.7443 128.41 46.458 137.349 46.458Z" fill="#ED0006"/>
<path d="M137.348 46.458C157.29 46.458 173.457 62.8123 173.457 82.9863C173.457 103.16 157.29 119.515 137.348 119.515C128.409 119.515 120.231 116.226 113.926 110.784C121.688 104.084 126.612 94.1178 126.612 82.9863C126.612 71.8544 121.689 61.8865 113.926 55.1865C120.231 49.7446 128.41 46.458 137.348 46.458Z" fill="#F9A000"/>
<path d="M113.927 55.187C121.69 61.887 126.614 71.8546 126.614 82.9868C126.614 94.1186 121.69 104.085 113.927 110.785C106.164 104.085 101.24 94.1183 101.24 82.9868C101.24 71.8549 106.164 61.887 113.927 55.187Z" fill="#FF5E00"/>
</g>
<defs>
<filter id="filter0_d_4454_20886" x="0" y="0" width="225.209" height="167" filterUnits="userSpaceOnUse" color-interpolation-filters="sRGB">
<feFlood flood-opacity="0" result="BackgroundImageFix"/>
<feColorMatrix in="SourceAlpha" type="matrix" values="0 0 0 0 0 0 0 0 0 0 0 0 0 0 0 0 0 0 127 0" result="hardAlpha"/>
<feOffset/>
<feGaussianBlur stdDeviation="10"/>
<feComposite in2="hardAlpha" operator="out"/>
<feColorMatrix type="matrix" values="0 0 0 0 0 0 0 0 0 0 0 0 0 0 0 0 0 0 0.07 0"/>
<feBlend mode="normal" in2="BackgroundImageFix" result="effect1_dropShadow_4454_20886"/>
<feBlend mode="normal" in="SourceGraphic" in2="effect1_dropShadow_4454_20886" result="shape"/>
</filter>
</defs>
</svg>
