<svg width="226" height="167" viewBox="0 0 226 167" fill="none" xmlns="http://www.w3.org/2000/svg">
<g filter="url(#filter0_d_4454_20887)">
<rect x="21.3229" y="21.3229" width="182.562" height="124.354" rx="14.5521" fill="white" stroke="#D9D9D9" stroke-width="2.64583"/>
<path fill-rule="evenodd" clip-rule="evenodd" d="M76.2253 106.033H65.0053L56.5916 73.9342C56.1923 72.4576 55.3444 71.1523 54.0971 70.5371C50.9843 68.991 47.5543 67.7605 43.8125 67.14V65.9042H61.8871C64.3816 65.9042 66.2526 67.7605 66.5644 69.9165L70.9299 93.0703L82.1444 65.9042H93.0526L76.2253 106.033ZM99.2899 106.033H88.6935L97.419 65.9042H108.015L99.2899 106.033ZM121.725 77.0215C122.036 74.8602 123.907 73.6244 126.09 73.6244C129.52 73.3141 133.257 73.9347 136.375 75.4754L138.246 66.8355C135.127 65.5997 131.697 64.9792 128.585 64.9792C118.3 64.9792 110.816 70.5376 110.816 78.2519C110.816 84.1206 116.117 87.2021 119.859 89.0584C123.907 90.9095 125.466 92.1453 125.155 93.9963C125.155 96.7728 122.036 98.0086 118.924 98.0086C115.182 98.0086 111.44 97.0831 108.016 95.537L106.145 104.182C109.886 105.723 113.935 106.344 117.676 106.344C129.208 106.648 136.375 101.095 136.375 92.7605C136.375 82.2642 121.725 81.649 121.725 77.0215ZM173.457 106.033L165.043 65.9042H156.006C154.135 65.9042 152.264 67.14 151.64 68.991L136.06 106.033H146.968L149.146 100.169H162.548L163.796 106.033H173.457ZM157.569 76.711L160.681 91.8348H151.956L157.569 76.711Z" fill="#172B85"/>
</g>
<defs>
<filter id="filter0_d_4454_20887" x="0" y="0" width="225.209" height="167" filterUnits="userSpaceOnUse" color-interpolation-filters="sRGB">
<feFlood flood-opacity="0" result="BackgroundImageFix"/>
<feColorMatrix in="SourceAlpha" type="matrix" values="0 0 0 0 0 0 0 0 0 0 0 0 0 0 0 0 0 0 127 0" result="hardAlpha"/>
<feOffset/>
<feGaussianBlur stdDeviation="10"/>
<feComposite in2="hardAlpha" operator="out"/>
<feColorMatrix type="matrix" values="0 0 0 0 0 0 0 0 0 0 0 0 0 0 0 0 0 0 0.07 0"/>
<feBlend mode="normal" in2="BackgroundImageFix" result="effect1_dropShadow_4454_20887"/>
<feBlend mode="normal" in="SourceGraphic" in2="effect1_dropShadow_4454_20887" result="shape"/>
</filter>
</defs>
</svg>
