<svg width="120" height="67" viewBox="0 0 120 67" fill="none" xmlns="http://www.w3.org/2000/svg">
<path d="M57.0511 35.649C56.4822 35.1596 55.9214 34.6862 55.4807 34.0924C54.5674 32.8809 54.3751 31.5249 54.6555 30.0646C54.976 28.4197 55.681 26.9273 56.3621 25.4189C57.1472 23.6778 57.9805 21.9527 58.325 20.0591C58.5974 18.5908 58.5253 17.1626 57.8363 15.7986C57.8042 15.7264 57.7962 15.6381 57.66 15.6141C57.7642 16.0955 57.8923 16.5689 57.9725 17.0423C58.1888 18.326 57.9404 19.5697 57.5799 20.7973C57.0271 22.6909 56.1377 24.44 55.3526 26.2453C54.8077 27.497 54.287 28.7487 54.0867 30.1127C54.0146 30.6022 54.0226 31.0996 54.0386 31.5891C54.0386 31.7014 54.1187 31.8538 53.9985 31.918C53.8784 31.9822 53.7822 31.8458 53.6941 31.7736C51.9315 30.4497 50.6335 28.7647 49.8804 26.6866C48.6145 23.1803 48.927 19.7863 50.922 16.6331C52.0276 14.8839 53.5979 13.56 55.4167 12.5651C56.979 11.7146 58.6695 11.2813 60.4401 11.2813C62.4351 11.2813 64.3179 11.7868 66.0645 12.7577C68.4521 14.0816 70.2948 15.9511 71.4726 18.4303C72.8747 21.367 72.9949 24.3678 71.8011 27.4007C70.5993 30.4337 68.4281 32.6803 65.8562 34.5819C65.5438 34.8145 65.2473 35.0713 64.9348 35.32C64.9268 35.3281 64.9349 35.3441 64.9429 35.3602C69.6859 33.948 74.3649 28.6283 73.9243 21.9126C73.3875 13.7686 66.2969 8.48108 59.0541 9.29146C51.1623 10.1741 46.2269 17.2348 47.1083 24.2876C47.597 28.179 49.4478 31.2842 52.5804 33.611C53.9264 34.6059 55.4006 35.3361 57.0511 35.649Z" fill="#A10550"/>
<path d="M66.4493 19.9867C66.2089 20.059 65.9686 20.1633 65.7282 20.2114C65.3436 20.2756 65.2715 20.1793 65.3036 19.7861C65.4398 17.9166 65.1754 16.1354 64.1338 14.5307C63.7813 13.9851 63.3086 13.5679 62.6116 13.3271C62.8599 14.0493 63.1083 14.7072 63.2605 15.3892C63.7412 17.5556 63.4608 19.6337 62.5715 21.6476C61.8264 23.3406 60.8089 24.8811 59.9276 26.5019C58.9741 28.2591 58.2531 30.0804 58.3091 32.1345C58.3252 32.7603 58.3973 33.3862 58.5575 33.9959C58.5735 34.0682 58.6617 34.1484 58.5495 34.1885C58.4534 34.2286 58.4133 34.1324 58.3812 34.0601C58.1088 33.4824 57.9646 32.8726 57.9005 32.2468C57.6682 29.936 58.3252 27.8338 59.4549 25.852C59.5189 25.7397 59.583 25.6273 59.6552 25.4909C59.1985 25.6915 58.8219 26.0285 58.3732 26.7506C57.0913 28.8207 56.5065 31.0593 56.867 33.4824C57.1714 35.5285 58.6456 36.8363 60.7047 36.9807C61.1053 37.0128 61.5059 36.9968 61.9065 36.9888C62.0107 36.9888 62.1228 37.0128 62.1709 36.8925C60.3442 36.1944 59.3667 34.8224 59.1664 32.9208C59.0062 31.4364 59.8715 30.5137 61.3617 30.3934C61.9786 30.3452 62.5875 30.3934 63.1884 30.5378C63.7172 30.6581 64.246 30.6902 64.7668 30.4977C65.4718 30.2329 65.7202 29.7354 65.5359 29.0053C65.4718 28.7565 65.3837 28.5239 65.3276 28.2751C65.2235 27.8178 65.3597 27.5931 65.8083 27.4808C66.3051 27.3524 66.3131 27.3524 66.0166 26.9673C65.8804 26.7908 65.8884 26.6784 66.1208 26.6303C66.5374 26.542 66.5214 26.3174 66.3451 26.0125C66.273 25.8841 66.2089 25.7557 66.1528 25.6193C65.9445 25.0577 65.9846 24.9213 66.4813 24.5843C66.5935 24.5121 66.6977 24.4318 66.8018 24.3436C67.1623 24.0146 67.1704 23.7257 66.7938 23.4048C66.5615 23.2042 66.3051 23.0277 66.0327 22.8913C65.5199 22.6345 65.3116 22.2093 65.2635 21.6637C65.2555 21.5674 65.2475 21.4791 65.2395 21.3828C65.2395 21.1261 65.1754 20.8533 65.2475 20.6286C65.3436 20.3318 65.6962 20.5163 65.9125 20.42C66.1288 20.3237 66.3612 20.2515 66.5134 20.0429C66.4974 20.0349 66.4733 20.0108 66.4493 19.9867Z" fill="#A10550"/>
<path d="M50.6013 5.59241C51.7069 5.92941 52.6123 6.55525 53.2692 7.51808C53.3013 7.56622 53.3654 7.60634 53.4135 7.64646C53.085 6.30652 52.5802 5.0789 51.2583 4.40492C50.5933 4.06793 49.8962 4.18828 49.2152 4.29259C48.4781 4.41294 47.7811 4.30864 47.1081 4.00374C47.06 3.97967 47.0119 3.97967 46.9558 3.96362C46.9478 3.96362 46.9318 3.97165 46.8837 3.99572C47.06 4.89436 47.4766 5.6887 48.0615 6.38675C49.055 7.57424 50.3289 8.26427 51.8511 8.52103C52.3959 8.60929 52.9087 8.78581 53.4375 9.13885C53.2692 8.28032 52.9488 7.59832 52.42 7.01259C51.9072 6.44292 51.2743 6.05778 50.6013 5.72079C50.3689 5.64858 50.1286 5.57637 49.8642 5.39985C50.1686 5.42392 50.393 5.47206 50.6013 5.59241ZM49.7039 5.36775C49.728 5.36775 49.744 5.36775 49.768 5.35973C49.76 5.36775 49.752 5.37578 49.736 5.37578C49.72 5.3838 49.7119 5.36775 49.7039 5.36775Z" fill="#A10550"/>
<path d="M51.8924 9.86899C51.0511 9.37955 50.1698 9.01046 49.2164 8.87406C48.3271 8.74569 47.622 9.06663 47.1013 9.79678C46.9811 9.95725 46.8689 10.1257 46.7567 10.2862C46.3241 10.9442 45.8354 11.5299 44.954 11.7866C46.6846 12.7093 48.3511 13.271 50.1778 12.3082C51.0832 11.8348 51.8924 11.1849 52.998 10.9201C51.4678 10.0455 49.9936 10.0054 48.4553 10.551C49.4888 9.74864 50.6826 9.78875 51.8924 9.86899Z" fill="#A10550"/>
<path d="M54.6566 -2.07429e-07C53.4308 1.87752 52.934 3.74702 53.9435 5.80909C54.256 6.44295 54.5925 7.06879 54.4963 7.83906C55.0412 7.32555 55.4097 6.71576 55.6421 6.0177C55.8744 5.29558 55.7542 4.58148 55.6901 3.85935C56.2349 4.91847 56.251 6.00165 55.8023 7.15705C57.4207 5.26348 57.3726 3.67481 56.0426 2.18242C55.7622 1.86148 55.4738 1.54855 55.2094 1.21156C54.945 0.874572 54.7527 0.505487 54.6566 -2.07429e-07Z" fill="#A10550"/>
<path d="M59.9109 7.02868C59.31 7.83907 58.4848 8.32851 57.4993 8.6334C58.9575 9.16296 60.5519 8.75376 61.1608 7.22125C61.3531 6.73181 61.4572 6.22632 61.5373 5.71281C61.6655 4.91045 61.7617 4.70986 62.2344 4.05193C61.6014 4.01181 61.0246 4.14019 60.4557 4.26054C59.2459 4.5173 58.3646 5.20733 57.7797 6.29854C57.4272 6.96449 57.0026 7.56627 56.2334 7.98349C57.323 8.19211 58.2364 8.01559 59.0857 7.44591C59.4062 7.22927 59.6705 6.94042 59.959 6.68367C60.0391 6.49913 60.1513 6.33865 60.3596 6.25039C60.2474 6.53924 60.1593 6.82809 59.9109 7.02868Z" fill="#A10550"/>
<path d="M59.9107 7.02881C60.1591 6.82822 60.2472 6.53937 60.3594 6.25854C60.1511 6.33878 60.0389 6.49925 59.9588 6.69182C59.9428 6.80415 59.9267 6.91648 59.9107 7.02881Z" fill="#A10550"/>
<path d="M50.6016 5.59254C50.3933 5.47218 50.1769 5.42404 49.8645 5.41602C50.1289 5.60056 50.3692 5.67277 50.6016 5.73696C50.6016 5.68079 50.6016 5.64068 50.6016 5.59254Z" fill="#A10550"/>
<path d="M66.5214 20.059C66.5455 20.0269 66.5775 19.9868 66.6016 19.9547C66.5375 19.9146 66.4894 19.9307 66.4493 19.9949C66.4734 20.0109 66.4974 20.035 66.5214 20.059Z" fill="#A10550"/>
<path d="M53.4049 7.64648L53.4297 7.67131L53.4049 7.65476L53.4049 7.64648Z" fill="#A10550"/>
<path d="M49.7035 5.36794C49.7115 5.37621 49.7275 5.38449 49.7355 5.38449C49.7435 5.38449 49.7596 5.37621 49.7676 5.36794C49.7435 5.35966 49.7195 5.36794 49.7035 5.36794Z" fill="#A10550"/>
<path d="M14.9937 59.86C13.3937 59.86 11.7937 59.58 10.1937 59.02C9.03367 59.46 7.69367 59.68 6.17367 59.68C5.83367 59.68 5.52367 59.66 5.24367 59.62C5.24367 58.42 5.79367 55.46 6.89367 50.74C7.99367 46.02 8.54367 43.35 8.54367 42.73C8.54367 42.11 8.42367 41.56 8.18367 41.08C7.96367 40.6 7.73367 40.24 7.49367 40L7.16367 39.67L7.28367 38.92C7.78367 38.82 8.93367 38.68 10.7337 38.5C12.5537 38.3 14.0937 38.2 15.3537 38.2C20.2337 38.2 22.6737 39.77 22.6737 42.91C22.6737 44.37 22.1737 45.56 21.1737 46.48C20.1937 47.4 18.9737 48.02 17.5137 48.34C18.8937 48.5 20.0537 49 20.9937 49.84C21.9337 50.66 22.4037 51.83 22.4037 53.35C22.4037 55.23 21.7037 56.79 20.3037 58.03C18.9037 59.25 17.1337 59.86 14.9937 59.86ZM13.9737 49.36C13.6137 49.36 13.2137 49.39 12.7737 49.45C11.9937 52.87 11.4937 55.35 11.2737 56.89C11.7137 57.15 12.3137 57.28 13.0737 57.28C14.2337 57.28 15.1037 56.8 15.6837 55.84C16.2637 54.88 16.5537 53.8 16.5537 52.6C16.5537 51.38 16.3337 50.54 15.8937 50.08C15.4737 49.6 14.8337 49.36 13.9737 49.36ZM13.5837 47.17C14.4637 47.17 15.1537 46.84 15.6537 46.18C16.5537 45.04 17.0037 43.78 17.0037 42.4C17.0037 41 16.5237 40.3 15.5637 40.3L14.5737 40.42C14.5537 41.2 14.1337 43.45 13.3137 47.17H13.5837ZM30.0495 58.9C29.0895 59.42 27.6895 59.68 25.8495 59.68C25.2695 59.68 24.7095 59.64 24.1695 59.56C24.1695 58.5 24.7195 55.72 25.8195 51.22C26.9395 46.72 27.4995 43.69 27.4995 42.13C27.4995 41.73 27.3995 41.31 27.1995 40.87C26.9995 40.41 26.7995 40.06 26.5995 39.82L26.2695 39.43L26.3895 38.83C27.8095 38.41 30.0395 38.2 33.0795 38.2C33.3595 38.76 33.4995 39.47 33.4995 40.33C33.4995 41.19 33.0795 43.57 32.2395 47.47H32.4195C33.8595 47.47 34.9395 46.82 35.6595 45.52C36.3995 44.2 36.9695 42.03 37.3695 39.01C39.1495 38.47 40.9095 38.2 42.6495 38.2C42.6895 38.36 42.6995 38.8 42.6795 39.52C42.6595 40.22 42.4695 41.16 42.1095 42.34C41.7695 43.52 41.1495 44.74 40.2495 46C39.3495 47.24 38.2495 48.19 36.9495 48.85C38.4695 54.09 39.6495 56.71 40.4895 56.71C40.8095 56.71 41.3195 56.59 42.0195 56.35L42.3495 56.23L43.0695 57.88C41.2095 59.2 39.3295 59.86 37.4295 59.86C35.5295 59.86 34.2795 58.88 33.6795 56.92C33.0795 54.92 32.6295 52.57 32.3295 49.87H31.6995C30.5995 54.75 30.0495 57.76 30.0495 58.9ZM50.6098 59.89C48.0898 59.89 46.1498 59.08 44.7898 57.46C44.0498 56.58 43.6798 55.51 43.6798 54.25C43.6798 52.55 44.2798 51.16 45.4798 50.08C46.6798 48.98 48.0998 48.34 49.7398 48.16C47.2198 47.48 45.9598 46.03 45.9598 43.81C45.9598 42.09 46.6998 40.73 48.1798 39.73C49.6598 38.71 51.3398 38.2 53.2198 38.2C55.1198 38.2 56.6998 38.59 57.9598 39.37C59.2198 40.15 59.8498 41.18 59.8498 42.46C59.8498 43.2 59.6498 43.9 59.2498 44.56L59.0398 44.89C58.2198 44.89 57.3398 44.77 56.3998 44.53C55.4598 44.27 54.7498 43.94 54.2698 43.54L54.5698 40.48C54.2698 40.34 53.9698 40.27 53.6698 40.27C53.0498 40.27 52.5698 40.6 52.2298 41.26C51.9098 41.92 51.7498 42.69 51.7498 43.57C51.7498 44.45 51.8398 45.15 52.0198 45.67C52.2198 46.19 52.5198 46.59 52.9198 46.87C53.3398 47.13 53.6998 47.32 53.9998 47.44C54.3198 47.54 54.7598 47.65 55.3198 47.77L55.0798 49.51C53.6998 49.51 52.4298 49.9 51.2698 50.68C50.1098 51.46 49.5298 52.51 49.5298 53.83C49.5298 54.77 49.8298 55.46 50.4298 55.9C51.0298 56.32 51.7398 56.53 52.5598 56.53C53.3998 56.53 54.2798 56.32 55.1998 55.9C56.1198 55.48 56.9098 54.95 57.5698 54.31L58.9198 55.66C58.0598 56.84 56.8698 57.84 55.3498 58.66C53.8298 59.48 52.2498 59.89 50.6098 59.89ZM68.0374 55.9C68.8574 55.9 69.8974 55.54 71.1574 54.82C71.1974 54.54 71.6574 52.49 72.5374 48.67C73.4174 44.83 73.8574 42.1 73.8574 40.48C73.8574 39.88 73.8474 39.47 73.8274 39.25C75.8274 38.55 77.7374 38.2 79.5574 38.2C79.6774 38.34 79.7374 38.68 79.7374 39.22C79.7374 40.42 79.2374 43.22 78.2374 47.62C77.2574 52.02 76.7674 54.61 76.7674 55.39C76.7674 56.15 76.9074 56.53 77.1874 56.53C77.3674 56.53 77.9074 56.4 78.8074 56.14L79.4374 57.82C77.5574 59.18 75.7474 59.86 74.0074 59.86C73.1874 59.86 72.5174 59.63 71.9974 59.17C71.4774 58.71 71.1574 58.09 71.0374 57.31C68.5774 59.01 66.4674 59.86 64.7074 59.86C63.5674 59.86 62.6274 59.55 61.8874 58.93C61.1674 58.29 60.8074 57.43 60.8074 56.35C60.8074 55.25 61.2374 53 62.0974 49.6C62.9574 46.2 63.3874 43.62 63.3874 41.86C63.3874 41.52 63.2774 41.15 63.0574 40.75C62.8574 40.35 62.6574 40.03 62.4574 39.79L62.1274 39.43L62.2174 38.83C63.4774 38.41 65.6474 38.2 68.7274 38.2C69.1074 38.72 69.2974 39.6 69.2974 40.84C69.2974 42.08 68.8674 44.47 68.0074 48.01C67.1474 51.55 66.7174 53.68 66.7174 54.4C66.7174 55.4 67.1574 55.9 68.0374 55.9ZM84.0598 59.71H83.3698C83.3698 58.05 83.8398 55.02 84.7798 50.62C85.7198 46.22 86.2398 43.59 86.3398 42.73C86.4598 41.85 86.5298 41.19 86.5498 40.75C84.6698 40.79 83.1698 41.08 82.0498 41.62C81.4698 40.96 81.1098 39.99 80.9698 38.71C81.9498 38.37 83.6298 38.2 86.0098 38.2L95.4598 38.5C95.9198 38.5 96.6498 38.48 97.6498 38.44C97.7298 39.08 97.7698 39.62 97.7698 40.06C97.7698 41 97.1798 41.47 95.9998 41.47C95.6398 41.47 95.0698 41.41 94.2898 41.29C93.5298 41.17 92.8598 41.1 92.2798 41.08C92.2198 41.72 91.6998 44.32 90.7198 48.88C89.7598 53.44 89.2798 56.79 89.2798 58.93C88.3998 59.45 86.6598 59.71 84.0598 59.71ZM107.289 64.81C106.429 65.39 105.659 65.77 104.979 65.95C104.319 66.13 103.579 66.22 102.759 66.22C101.959 66.22 101.219 65.95 100.539 65.41C99.8787 64.87 99.5487 64.21 99.5487 63.43C99.5487 62.65 99.7387 61.98 100.119 61.42C100.519 60.88 101.089 60.42 101.829 60.04C103.129 59.36 104.769 58.81 106.749 58.39C106.889 58.07 107.119 57.34 107.439 56.2C106.639 56.62 105.629 57.01 104.409 57.37C103.209 57.73 102.139 57.91 101.199 57.91C100.259 57.91 99.4587 57.6 98.7987 56.98C98.1587 56.34 97.8387 55.47 97.8387 54.37C97.8387 53.25 98.1987 51.23 98.9187 48.31C99.6587 45.37 100.029 43.27 100.029 42.01C100.029 41.63 99.9287 41.23 99.7287 40.81C99.5287 40.37 99.3287 40.02 99.1287 39.76L98.8587 39.4L98.9487 38.8C100.189 38.4 102.329 38.2 105.369 38.2C105.749 38.86 105.939 39.75 105.939 40.87C105.939 41.97 105.559 44.09 104.799 47.23C104.039 50.37 103.659 52.23 103.659 52.81C103.659 53.81 104.009 54.31 104.709 54.31C105.669 54.31 106.819 53.95 108.159 53.23C108.819 50.43 109.379 47.68 109.839 44.98C110.299 42.28 110.529 40.32 110.529 39.1C111.169 38.84 112.029 38.63 113.109 38.47C114.189 38.31 115.079 38.23 115.779 38.23H116.439C116.439 39.77 116.029 42.48 115.209 46.36C114.909 47.7 114.469 49.69 113.889 52.33C113.329 54.95 112.679 57.09 111.939 58.75C111.219 60.39 110.479 61.66 109.719 62.56C108.979 63.48 108.169 64.23 107.289 64.81ZM101.769 62.89C101.769 63.33 102.059 63.55 102.639 63.55C103.219 63.55 103.859 63.21 104.559 62.53C105.259 61.87 105.759 61.19 106.059 60.49C104.899 60.67 103.889 60.98 103.029 61.42C102.189 61.88 101.769 62.37 101.769 62.89Z" fill="#A10550"/>
</svg>
