<svg width="24" height="24" viewBox="0 0 24 24" fill="none" xmlns="http://www.w3.org/2000/svg">
<path d="M14.1205 10.4799C13.9329 10.2925 13.6786 10.1871 13.4135 10.1871C13.1483 10.1871 12.894 10.2925 12.7065 10.4799L11.9995 11.1859C11.6223 11.5502 11.1171 11.7518 10.5927 11.7473C10.0683 11.7427 9.56665 11.5324 9.19583 11.1616C8.82502 10.7908 8.61468 10.2891 8.61012 9.76473C8.60557 9.24034 8.80716 8.73514 9.17147 8.35793L14.8015 2.72593C16.1344 2.42276 17.529 2.54753 18.7869 3.08251C20.0448 3.61748 21.1021 4.53543 21.8084 5.70582C22.5146 6.87622 22.8339 8.23948 22.7208 9.60176C22.6077 10.964 22.068 12.256 21.1785 13.2939L19.0705 15.4289L14.1205 10.4799ZM3.16047 4.46793C4.19495 3.43283 5.54846 2.77711 7.00194 2.60688C8.45541 2.43665 9.92381 2.76188 11.1695 3.52993L7.75647 6.94393C7.01727 7.68166 6.5959 8.67923 6.58241 9.72349C6.56891 10.7678 6.96436 11.7759 7.68425 12.5325C8.40414 13.289 9.39138 13.7341 10.435 13.7725C11.4787 13.8109 12.4959 13.4396 13.2695 12.7379L13.4135 12.6009L17.6565 16.8429L13.4135 21.0859C13.0384 21.4609 12.5298 21.6715 11.9995 21.6715C11.4691 21.6715 10.9605 21.4609 10.5855 21.0859L3.15947 13.6599C1.9406 12.441 1.25586 10.7877 1.25586 9.06393C1.25586 7.34012 1.9416 5.6869 3.16047 4.46793Z" fill="#A10550"/>
</svg>
