<svg width="30" height="30" viewBox="0 0 30 30" fill="none" xmlns="http://www.w3.org/2000/svg">
<path d="M6.25 5H8.125L11.25 20M11.25 20H21.25M11.25 20C10.587 20 9.95107 20.2634 9.48223 20.7322C9.01339 21.2011 8.75 21.837 8.75 22.5C8.75 23.163 9.01339 23.7989 9.48223 24.2678C9.95107 24.7366 10.587 25 11.25 25C11.913 25 12.5489 24.7366 13.0178 24.2678C13.4866 23.7989 13.75 23.163 13.75 22.5C13.75 21.837 13.4866 21.2011 13.0178 20.7322C12.5489 20.2634 11.913 20 11.25 20ZM21.25 20C20.587 20 19.9511 20.2634 19.4822 20.7322C19.0134 21.2011 18.75 21.837 18.75 22.5C18.75 23.163 19.0134 23.7989 19.4822 24.2678C19.9511 24.7366 20.587 25 21.25 25C21.913 25 22.5489 24.7366 23.0178 24.2678C23.4866 23.7989 23.75 23.163 23.75 22.5C23.75 21.837 23.4866 21.2011 23.0178 20.7322C22.5489 20.2634 21.913 20 21.25 20ZM10.625 16.25H22.1875L23.75 8.75H9.14" stroke="#A10550" stroke-width="2" stroke-linecap="round" stroke-linejoin="round"/>
</svg>
