<svg width="14" height="14" viewBox="0 0 14 14" fill="none" xmlns="http://www.w3.org/2000/svg">
<path opacity="0.987" fill-rule="evenodd" clip-rule="evenodd" d="M5.96022 0.06075C6.68522 -0.02025 7.11422 -0.02025 7.89322 0.06075C9.27215 0.264845 10.5504 0.902235 11.5432 1.88075C10.8723 2.51489 10.2103 3.15828 9.55722 3.81075C8.30655 2.75075 6.91055 2.50608 5.36922 3.07675C4.23855 3.59675 3.45122 4.43942 3.00722 5.60475C2.28166 5.06458 1.56555 4.51183 0.859219 3.94675C0.810131 3.92091 0.754067 3.91145 0.699219 3.91975C1.82122 1.75642 3.57455 0.46975 5.95922 0.05975" fill="#F44336"/>
<path opacity="0.997" fill-rule="evenodd" clip-rule="evenodd" d="M0.696252 3.91969C0.752919 3.91103 0.806586 3.92003 0.857252 3.94669C1.56358 4.51177 2.27969 5.06452 3.00525 5.60469C2.89108 6.05875 2.8191 6.52239 2.79025 6.98969C2.81492 7.44169 2.88659 7.88536 3.00525 8.32069L0.750252 10.1157C-0.231748 8.06369 -0.249748 5.99836 0.696252 3.91969Z" fill="#FFC107"/>
<path opacity="0.999" fill-rule="evenodd" clip-rule="evenodd" d="M11.4341 12.2897C10.732 11.6705 9.99688 11.0897 9.23209 10.5497C9.99876 10.0084 10.4641 9.26574 10.6281 8.32174H6.87109V5.71274C9.03776 5.69474 11.2034 5.71308 13.3681 5.76774C13.7788 7.99774 13.3044 10.0084 11.9451 11.7997C11.7835 11.9716 11.6122 12.1351 11.4341 12.2897Z" fill="#448AFF"/>
<path opacity="0.993" fill-rule="evenodd" clip-rule="evenodd" d="M3.005 8.32178C3.825 10.3598 5.32833 11.3111 7.515 11.1758C8.12883 11.1047 8.71735 10.8903 9.233 10.5498C9.99833 11.0911 10.7323 11.6711 11.435 12.2898C10.3216 13.2902 8.90211 13.8838 7.408 13.9738C7.06854 14.0009 6.72746 14.0009 6.388 13.9738C3.84267 13.6738 1.96333 12.3878 0.75 10.1158L3.005 8.32178Z" fill="#43A047"/>
</svg>
